<?xml version="1.0" encoding="iso-8859-1"?>
<!-- Generator: Adobe Illustrator 19.0.0, SVG Export Plug-In . SVG Version: 6.00 Build 0)  -->
<svg version="1.1" id="Capa_1" xmlns="http://www.w3.org/2000/svg" xmlns:xlink="http://www.w3.org/1999/xlink" x="0px" y="0px"
	 viewBox="0 0 511.999 511.999" style="enable-background:new 0 0 511.999 511.999;" xml:space="preserve">
<path style="fill:#495059;" d="M340.682,112.542l-37.029,6.529l-6.911-39.192c-1.677-9.511-10.779-15.884-20.29-14.207
	L157.713,86.609c-9.512,1.677-15.884,10.779-14.207,20.29l6.911,39.192l-37.029,6.529l-6.911-39.192
	c-5.277-29.928,14.778-58.57,44.707-63.847l118.739-20.937c29.929-5.277,58.571,14.778,63.848,44.707L340.682,112.542z"/>
<path style="fill:#CE9786;" d="M466.673,418.798l-366.93,64.7c-24.894,4.389-48.632-12.233-53.022-37.126L8.209,227.953
	c-4.389-24.894,12.233-48.632,37.126-53.022l366.93-64.699c24.894-4.389,48.632,12.233,53.022,37.126l38.513,218.418
	C508.189,390.67,491.567,414.408,466.673,418.798z"/>
<g>
	
		<rect x="88.363" y="164.564" transform="matrix(-0.9848 0.1736 -0.1736 -0.9848 289.7012 617.1108)" style="fill:#F9F1DA;" width="58.999" height="313.323"/>
	
		<rect x="364.64" y="115.834" transform="matrix(0.9848 -0.1736 0.1736 0.9848 -41.3212 72.5612)" style="fill:#F9F1DA;" width="58.999" height="313.323"/>
</g>
<g>
	<path style="fill:#F8E686;" d="M155.953,123.216l-55.59,9.802c-7.071,1.247-11.792,7.989-10.545,15.06l3.251,18.437l81.194-14.317
		l-3.251-18.437C169.766,126.69,163.024,121.969,155.953,123.216z"/>
	<path style="fill:#F8E686;" d="M290.628,99.469l55.59-9.802c7.071-1.247,13.813,3.474,15.06,10.545l3.251,18.437l-81.194,14.317
		l-3.251-18.437C278.838,107.458,283.559,100.715,290.628,99.469z"/>
</g>
<circle style="opacity:0.15;fill:#A95425;enable-background:new    ;" cx="345.727" cy="275.947" r="42.631"/>
<circle style="fill:#6DA1D9;" cx="350.347" cy="267.497" r="42.631"/>
<path style="opacity:0.15;fill:#A95425;enable-background:new    ;" d="M108.937,163.717l-63.603,11.215
	c-24.894,4.39-41.516,28.128-37.126,53.022l38.513,218.418c4.389,24.894,28.128,41.516,53.022,37.126l278.49-49.106
	C159.684,404.344,112.682,249.42,108.937,163.717z"/>
<path style="fill:#95DAB8;" d="M240.169,396.612h-83.5c-7.094,0-12.845-5.751-12.845-12.845v-38.162
	c0-7.094,5.751-12.845,12.845-12.845h83.5c7.094,0,12.845,5.751,12.845,12.845v38.162
	C253.015,390.861,247.263,396.612,240.169,396.612z"/>
<path style="opacity:0.15;fill:#2C6245;enable-background:new    ;" d="M173.228,332.759h-16.56
	c-7.094,0-12.845,5.751-12.845,12.845v38.162c0,7.094,5.751,12.845,12.845,12.845h83.5c3.12,0,5.979-1.114,8.205-2.964
	C217.063,376.403,192.455,355.435,173.228,332.759z"/>
<g>
	<path style="fill:#F5C07E;" d="M503.799,365.776c4.389,24.894-12.233,48.632-37.126,53.022l-16.292,2.873
		c-5.976-33.892,16.654-66.21,50.546-72.186L503.799,365.776z"/>
	<path style="fill:#F5C07E;" d="M46.721,446.371c4.389,24.894,28.128,41.516,53.022,37.126l16.292-2.872
		c-5.976-33.892-38.296-56.522-72.186-50.546L46.721,446.371z"/>
	<path style="fill:#F5C07E;" d="M8.209,227.953c-4.389-24.894,12.233-48.632,37.126-53.022l16.292-2.873
		c5.976,33.892-16.654,66.21-50.546,72.186L8.209,227.953z"/>
	<path style="fill:#F5C07E;" d="M465.286,147.358c-4.389-24.894-28.128-41.516-53.022-37.126l-16.292,2.872
		c5.976,33.892,38.296,56.522,72.186,50.546L465.286,147.358z"/>
</g>
<path style="opacity:0.15;fill:#A95425;enable-background:new    ;" d="M234.36,240.393l-57.582,24.614
	c-6.902,2.95-14.889-0.253-17.84-7.155l-8.257-19.315c-2.95-6.902,0.253-14.889,7.155-17.84l57.582-24.615
	c6.902-2.951,14.889,0.253,17.84,7.155l8.257,19.315C244.466,229.455,241.262,237.442,234.36,240.393z"/>
<path style="fill:#F8E686;" d="M239.56,234.136l-60.827,22.139c-7.291,2.654-15.353-1.105-18.007-8.397l-7.426-20.403
	c-2.654-7.291,1.106-15.353,8.397-18.007l60.827-22.139c7.291-2.654,15.353,1.106,18.007,8.397l7.426,20.403
	C250.61,223.421,246.851,231.482,239.56,234.136z"/>
<path d="M511.185,364.474l-2.87-16.279c-0.001-0.005-0.001-0.009-0.002-0.014s-0.002-0.009-0.003-0.013l-23.701-134.416
	c-0.72-4.08-4.607-6.801-8.688-6.084c-4.079,0.719-6.803,4.609-6.083,8.689l22.472,127.446
	c-18.493,5.347-33.368,17.948-42.037,34.064l-39.418-223.544c12.538,11.176,28.98,17.782,46.45,17.782
	c1.558,0,3.126-0.069,4.698-0.175l1.555,8.817c0.719,4.08,4.612,6.802,8.688,6.084c4.079-0.719,6.803-4.609,6.083-8.688
	l-2.783-15.784c-0.001-0.003-0.001-0.006-0.001-0.009c-0.001-0.003-0.001-0.006-0.002-0.009l-2.871-16.283
	c-2.471-14.013-10.251-26.224-21.906-34.386c-11.656-8.162-25.793-11.294-39.805-8.824l-16.28,2.871
	c-0.004,0.001-0.008,0.001-0.012,0.002s-0.008,0.002-0.012,0.003l-24.045,4.24l-1.949-11.052
	c-1.964-11.131-12.607-18.586-23.748-16.628l-1.895,0.334l-1.863-10.567c-5.996-34.002-38.535-56.788-72.535-50.79L149.884,42.195
	c-16.447,2.9-30.795,12.05-40.397,25.764c-9.603,13.714-13.293,30.325-10.393,46.772l1.863,10.567l-1.894,0.334
	c-11.132,1.962-18.592,12.616-16.63,23.749l1.949,11.051L60.34,164.67c-0.005,0.001-0.011,0.001-0.016,0.002
	c-0.005,0.001-0.01,0.003-0.015,0.003l-16.277,2.87c-14.012,2.471-26.224,10.25-34.385,21.906s-11.296,25.792-8.824,39.804
	l2.87,16.279c0.001,0.005,0.001,0.009,0.002,0.013c0.001,0.005,0.002,0.01,0.003,0.015l32.763,185.812c0,0.002,0,0.005,0.001,0.007
	c0,0.003,0.001,0.005,0.002,0.007l2.871,16.285c4.552,25.812,27.082,44.026,52.434,44.025c3.06,0,6.161-0.266,9.276-0.814
	l16.288-2.872c0.001,0,0.002,0,0.004-0.001c0.001,0,0.002,0,0.003-0.001l334.335-58.953c0.003-0.001,0.005-0.001,0.007-0.001
	c0.002,0,0.004-0.001,0.006-0.001l16.286-2.872C496.903,421.083,516.286,393.4,511.185,364.474z M413.567,117.618
	c20.784-3.668,40.669,10.261,44.334,31.042l1.479,8.388c-24.438,0.925-46.71-14.666-54.201-37.951L413.567,117.618z M347.522,97.053
	c2.979-0.523,5.843,1.474,6.371,4.461l1.949,11.051l-19.272,3.398c-0.001,0-0.001,0-0.002,0s-0.001,0-0.002,0.001l-47.148,8.313
	l-1.949-11.052c-0.255-1.446,0.068-2.906,0.911-4.109c0.843-1.204,2.104-2.007,3.551-2.262L347.522,97.053z M272.698,115.831
	l1.949,11.051l-94.299,16.628l-1.949-11.051c-0.95-5.393-3.943-10.093-8.43-13.233c-4.485-3.141-9.922-4.347-15.318-3.396
	l-1.894,0.334l-1.863-10.567c-0.958-5.438,2.686-10.643,8.124-11.601l118.739-20.937c2.625-0.464,5.282,0.128,7.478,1.666
	c2.195,1.537,3.659,3.83,4.123,6.458l1.863,10.567l-1.896,0.334c-5.392,0.951-10.092,3.945-13.233,8.43
	C272.953,104.999,271.747,110.439,272.698,115.831z M121.775,76.562c7.304-10.432,18.212-17.391,30.715-19.595L271.228,36.03
	c25.859-4.559,50.6,12.767,55.159,38.623l1.863,10.567l-22.257,3.924l-1.864-10.567c-1.158-6.573-4.813-12.305-10.291-16.141
	c-5.478-3.836-12.111-5.31-18.688-4.151L156.411,79.221c-13.583,2.396-22.686,15.395-20.29,28.979l1.863,10.567l-22.257,3.925
	l-1.863-10.567C111.661,99.624,114.47,86.993,121.775,76.562z M101.667,140.404l46.302-8.165c0.002,0,0.005,0,0.007-0.001
	c0.002,0,0.004-0.001,0.006-0.001l9.274-1.635c1.445-0.257,2.905,0.068,4.109,0.911c1.203,0.843,2.007,2.103,2.262,3.55
	l1.949,11.051l-47.146,8.313c-0.001,0-0.003,0-0.004,0.001c-0.002,0-0.003,0.001-0.004,0.001l-19.27,3.398l-1.949-11.051
	C96.678,143.789,98.68,140.93,101.667,140.404z M15.595,226.65c-1.774-10.067,0.477-20.222,6.34-28.596
	c5.863-8.374,14.636-13.962,24.703-15.737l8.388-1.479c0.926,24.443-14.667,46.71-37.952,54.2L15.595,226.65z M98.441,476.111
	c-20.784,3.668-40.67-10.262-44.334-31.042l-1.479-8.387c24.441-0.925,46.711,14.665,54.201,37.951L98.441,476.111z
	 M122.119,471.936l-8.801-49.91c-0.719-4.08-4.61-6.802-8.688-6.084c-4.079,0.72-6.803,4.609-6.083,8.689l2.608,14.793
	c-13.658-12.179-31.945-18.932-51.152-17.631L19.699,249.927c18.493-5.347,33.368-17.948,42.037-34.064l30.547,173.238
	c0.642,3.639,3.806,6.199,7.377,6.199c0.433,0,0.871-0.038,1.312-0.115c4.079-0.719,6.803-4.609,6.083-8.689l-36.74-208.353
	l43.332-7.641l28.389,161.002c-3.528,3.661-5.712,8.626-5.712,14.1v38.163c0,10.595,8.143,19.314,18.498,20.252l10.628,60.278
	L122.119,471.936z M151.324,383.767v-38.163c0-2.947,2.398-5.345,5.346-5.345h83.5c2.947,0,5.346,2.398,5.346,5.345v38.163
	c0,2.947-2.398,5.345-5.346,5.345h-83.501C153.722,389.112,151.324,386.714,151.324,383.767z M180.22,461.691l-10.153-57.58h70.1
	c11.219,0,20.346-9.127,20.346-20.345v-38.163c0-11.218-9.127-20.345-20.346-20.345h-83.499c-0.169,0-0.332,0.021-0.5,0.025
	l-27.751-157.387l203.369-35.86l15.066,85.448c-1.737,0.124-3.476,0.333-5.214,0.64c-13.186,2.325-24.679,9.647-32.359,20.616
	c-7.681,10.969-10.63,24.273-8.304,37.46c2.324,13.187,9.646,24.68,20.615,32.36c8.522,5.968,18.455,9.079,28.647,9.079
	c2.924,0,5.871-0.256,8.811-0.775c1.738-0.306,3.444-0.705,5.119-1.182l19.422,110.149L180.22,461.691z M379.123,287.646
	c-3.296,4.706-7.596,8.448-12.554,11.021c-0.047,0.024-0.093,0.05-0.14,0.075c-3.101,1.591-6.455,2.728-9.985,3.35
	c-9.24,1.63-18.564-0.438-26.25-5.819c-7.688-5.382-12.817-13.436-14.447-22.677c-1.629-9.242,0.438-18.564,5.819-26.251
	c5.383-7.687,13.437-12.817,22.678-14.447c2.061-0.364,4.125-0.543,6.175-0.543c7.143,0,14.104,2.181,20.076,6.363
	c7.688,5.382,12.817,13.436,14.447,22.677c0,0,0,0,0,0.001C386.572,270.636,384.505,279.959,379.123,287.646z M398.362,423.227
	l-20.113-114.07c5.082-3.406,9.548-7.747,13.162-12.908c7.681-10.969,10.63-24.272,8.304-37.459
	c-2.324-13.187-9.645-24.68-20.615-32.36c-5.162-3.614-10.843-6.166-16.783-7.628l-15.758-89.369l43.331-7.641l51.804,293.794
	L398.362,423.227z M490.073,395.674c-5.863,8.374-14.636,13.963-24.703,15.738l-8.388,1.479
	c-0.926-24.443,14.667-46.711,37.952-54.2l1.479,8.388C498.188,377.145,495.937,387.3,490.073,395.674z M177.795,372.186h41.247
	c4.143,0,7.5-3.358,7.5-7.5s-3.357-7.5-7.5-7.5h-41.247c-4.143,0-7.5,3.358-7.5,7.5S173.653,372.186,177.795,372.186z
	 M247.578,193.161c-4.064-11.165-16.453-16.942-27.62-12.879l-60.827,22.139c-5.408,1.969-9.727,5.926-12.159,11.143
	c-2.434,5.217-2.688,11.069-0.72,16.477l7.426,20.402c1.969,5.409,5.926,9.728,11.143,12.161c2.897,1.351,5.99,2.031,9.094,2.031
	c2.485,0,4.979-0.436,7.384-1.311l60.827-22.139c11.165-4.064,16.942-16.454,12.879-27.62L247.578,193.161z M236.994,227.088
	l-60.827,22.139c-1.642,0.598-3.42,0.521-5.008-0.218c-1.585-0.739-2.788-2.052-3.386-3.696l-7.426-20.403
	c-0.599-1.644-0.521-3.422,0.218-5.007c0.739-1.585,2.052-2.788,3.696-3.386l60.827-22.139c0.736-0.269,1.49-0.396,2.233-0.396
	c2.676,0,5.193,1.653,6.16,4.309l7.426,20.403C242.144,222.088,240.388,225.854,236.994,227.088z"/>
<g>
</g>
<g>
</g>
<g>
</g>
<g>
</g>
<g>
</g>
<g>
</g>
<g>
</g>
<g>
</g>
<g>
</g>
<g>
</g>
<g>
</g>
<g>
</g>
<g>
</g>
<g>
</g>
<g>
</g>
</svg>
