<?xml version="1.0" encoding="UTF-8" standalone="no"?>
<!-- Created with Inkscape (http://www.inkscape.org/) -->
<!-- ClipArt by Arvin61r58 (http://openclipart.org/user-detail/Arvin61r58) -->

<svg
   xmlns:dc="http://purl.org/dc/elements/1.1/"
   xmlns:cc="http://creativecommons.org/ns#"
   xmlns:rdf="http://www.w3.org/1999/02/22-rdf-syntax-ns#"
   xmlns:svg="http://www.w3.org/2000/svg"
   xmlns="http://www.w3.org/2000/svg"
   xmlns:xlink="http://www.w3.org/1999/xlink"
   width="300"
   height="320"
   viewBox="0 0 300 320.00001"
   id="svg3445"
   version="1.1">
  <title
     id="title4354">Push Pin 02</title>
  <defs
     id="defs3447">
    <linearGradient
       id="linearGradient4481">
      <stop
         style="stop-color:#656565;stop-opacity:1"
         offset="0"
         id="stop4483" />
      <stop
         style="stop-color:#000000;stop-opacity:1"
         offset="1"
         id="stop4485" />
    </linearGradient>
    <linearGradient
       id="linearGradient4289">
      <stop
         style="stop-color:#e30000;stop-opacity:1"
         offset="0"
         id="stop4295" />
      <stop
         id="stop4293"
         offset="0.42441505"
         style="stop-color:#eb0000;stop-opacity:1;" />
      <stop
         style="stop-color:#f30000;stop-opacity:1"
         offset="1"
         id="stop4291" />
    </linearGradient>
    <linearGradient
       id="linearGradient4271">
      <stop
         style="stop-color:#f30000;stop-opacity:1"
         offset="0"
         id="stop4273" />
      <stop
         id="stop4279"
         offset="0.61115956"
         style="stop-color:#eb0000;stop-opacity:1;" />
      <stop
         style="stop-color:#e30000;stop-opacity:1"
         offset="1"
         id="stop4275" />
    </linearGradient>
    <radialGradient
       xlink:href="#linearGradient4271"
       id="radialGradient4277"
       cx="49.022663"
       cy="617.35596"
       fx="49.022663"
       fy="617.35596"
       r="90.419113"
       gradientTransform="matrix(0.74616996,0,0,0.59442974,43.884848,216.76374)"
       gradientUnits="userSpaceOnUse"
       spreadMethod="pad" />
    <linearGradient
       xlink:href="#linearGradient4289"
       id="linearGradient4287"
       x1="283.95834"
       y1="445.63168"
       x2="350.92413"
       y2="516.63171"
       gradientUnits="userSpaceOnUse"
       gradientTransform="matrix(0.74421777,0,0,0.75208432,97.896237,82.724328)" />
    <linearGradient
       xlink:href="#linearGradient4481"
       id="linearGradient4487"
       x1="282.17548"
       y1="514.18549"
       x2="430.08148"
       y2="557.18549"
       gradientUnits="userSpaceOnUse"
       gradientTransform="matrix(1.5479573,0.18069963,-0.17591728,1.3346128,-299.52319,-524.69366)" />
  </defs>
  <metadata
     id="metadata3450">
    <rdf:RDF>
      <cc:Work
         rdf:about="">
        <dc:format>image/svg+xml</dc:format>
        <dc:type
           rdf:resource="http://purl.org/dc/dcmitype/StillImage" />
        <dc:title>Push Pin 02</dc:title>
        <dc:description>Red push-pin (thumbtack) with shadow</dc:description>
        <dc:creator>
          <cc:Agent>
            <dc:title>Arvin61r58</dc:title>
          </cc:Agent>
        </dc:creator>
        <dc:publisher>
          <cc:Agent>
            <dc:title>Openclipart.org</dc:title>
          </cc:Agent>
        </dc:publisher>
        <dc:identifier>https://openclipart.org/</dc:identifier>
        <dc:source>https://openclipart.org/user-detail/Arvin61r58</dc:source>
        <dc:subject>
          <rdf:Bag>
            <rdf:li>push pin</rdf:li>
            <rdf:li>thumbtack</rdf:li>
            <rdf:li>office</rdf:li>
            <rdf:li>stationery</rdf:li>
            <rdf:li>office supply</rdf:li>
          </rdf:Bag>
        </dc:subject>
        <cc:license
           rdf:resource="http://creativecommons.org/publicdomain/zero/1.0/" />
      </cc:Work>
      <cc:License
         rdf:about="http://creativecommons.org/publicdomain/zero/1.0/">
        <cc:permits
           rdf:resource="http://creativecommons.org/ns#Reproduction" />
        <cc:permits
           rdf:resource="http://creativecommons.org/ns#Distribution" />
        <cc:permits
           rdf:resource="http://creativecommons.org/ns#DerivativeWorks" />
      </cc:License>
    </rdf:RDF>
  </metadata>
  <path
     id="path3728-9"
     d="m 67.104128,186.52406 a 37.637716,45.9842 53.895912 0 0 -21.550117,16.55417 37.637716,45.9842 53.895912 0 0 5.084122,55.47095 37.637716,45.9842 53.895912 0 0 52.894867,-7.30384 c 5.91768,2.11983 12.37705,4.9057 19.27417,8.22782 a 47.047144,57.480249 53.895907 0 0 18.18978,43.98512 47.047144,57.480249 53.895907 0 0 76.22458,-19.4042 47.047144,57.480249 53.895907 0 0 0.22594,-0.30395 c 10.08886,2.47446 19.59434,4.76609 20.57015,5.00887 2.17719,0.54188 46.76119,12.02358 46.99704,11.53485 0.23619,-0.48854 -39.83485,-21.32551 -41.7762,-22.35615 -0.83178,-0.44155 -8.65197,-4.66724 -17.14594,-9.21853 a 47.047144,57.480249 53.895907 0 0 -15.22601,-54.00257 47.047144,57.480249 53.895907 0 0 -70.31893,12.91731 c -7.12159,-1.32548 -13.6921,-2.76617 -19.56401,-4.35118 A 37.637716,45.9842 53.895912 0 0 106.53413,187.5557 37.637716,45.9842 53.895912 0 0 67.104061,186.52395 Z"
     style="opacity:1;fill:url(#linearGradient4487);fill-opacity:1;stroke:none;stroke-width:0.48940617;stroke-linecap:round;stroke-linejoin:round;stroke-miterlimit:4;stroke-dasharray:none;stroke-opacity:1" />
  <g
     transform="matrix(1.334128,0,0,1.3027787,-301.08342,-428.15541)"
     id="g4489">
    <path
       d="m 443.04194,561.19736 c -0.4949,0.43734 -37.53842,-32.37444 -39.35766,-33.95583 -1.81938,-1.58128 -38.27831,-32.66232 -39.60268,-34.68103 -1.32422,-2.01882 9.78091,-9.58429 10.27581,-10.02163 0.49488,-0.43731 9.3846,-10.54018 11.20359,-8.95907 1.81937,1.58129 27.75775,41.95902 29.08213,43.97773 1.32423,2.01882 28.89368,43.20253 28.39881,43.63983 z"
       id="path3728"
       style="opacity:1;fill:#cad2d2;fill-opacity:1;stroke:none;stroke-width:0.48940617;stroke-linecap:round;stroke-linejoin:round;stroke-miterlimit:4;stroke-dasharray:none;stroke-opacity:1" />
    <ellipse
       style="opacity:1;fill:url(#radialGradient4277);fill-opacity:1;stroke:#c30000;stroke-width:0.75851995;stroke-linecap:round;stroke-linejoin:round;stroke-miterlimit:4;stroke-dasharray:none;stroke-opacity:1"
       id="ellipse3726"
       cx="80.464088"
       cy="583.73846"
       rx="67.09494"
       ry="53.372749"
       transform="matrix(0.86538045,-0.50111543,0.49664873,0.86795163,0,0)" />
    <path
       id="rect3717"
       d="m 267.91895,408.45294 c 15.22261,0.66171 34.24562,24.08173 54.8458,56.93414 14.06836,22.43568 33.96415,8.68141 40.62299,2.09334 6.23239,-6.16596 19.0545,-24.12067 -2.79514,-38.97063 -31.99423,-21.74466 -54.66631,-41.60732 -54.8458,-56.93415 l -18.91391,18.43865 z"
       style="opacity:1;fill:url(#linearGradient4287);fill-opacity:1;stroke:#c30000;stroke-width:0.75851494;stroke-linecap:round;stroke-linejoin:round;stroke-miterlimit:4;stroke-dasharray:none;stroke-opacity:1" />
    <ellipse
       transform="matrix(0.86538045,-0.50111543,0.49664873,0.86795163,0,0)"
       ry="42.6982"
       rx="53.675953"
       cy="473.64551"
       cx="57.076893"
       id="path3715"
       style="opacity:1;fill:#f30000;fill-opacity:1;stroke:#c30000;stroke-width:0.75851995;stroke-linecap:round;stroke-linejoin:round;stroke-miterlimit:4;stroke-dasharray:none;stroke-opacity:1" />
  </g>
</svg>
